# Blender 4.5.0
# www.blender.org
mtllib tonnetz_button_top.mtl
o Cylinder
v -0.105189 0.091594 -0.014614
v -0.103566 0.091594 -0.014534
v -0.101958 0.091594 -0.014296
v -0.100381 0.091594 -0.013901
v -0.098850 0.091594 -0.013353
v -0.097380 0.091594 -0.012658
v -0.095986 0.091594 -0.011822
v -0.094680 0.091594 -0.010854
v -0.093475 0.091594 -0.009762
v -0.092384 0.091594 -0.008557
v -0.091415 0.091594 -0.007251
v -0.090579 0.091594 -0.005857
v -0.089884 0.091594 -0.004387
v -0.089337 0.091594 -0.002857
v -0.088942 0.091594 -0.001280
v -0.088703 0.091594 0.000329
v -0.088623 0.091594 0.001952
v -0.088703 0.091594 0.003576
v -0.088942 0.091594 0.005184
v -0.089337 0.091594 0.006761
v -0.089884 0.091594 0.008292
v -0.090579 0.091594 0.009762
v -0.091415 0.091594 0.011156
v -0.092384 0.091594 0.012462
v -0.093475 0.091594 0.013666
v -0.094680 0.091594 0.014758
v -0.095986 0.091594 0.015727
v -0.097380 0.091594 0.016562
v -0.098850 0.091594 0.017257
v -0.100381 0.091594 0.017805
v -0.101958 0.091594 0.018200
v -0.103566 0.091594 0.018439
v -0.105189 0.091594 0.018519
v -0.106813 0.091594 0.018439
v -0.108421 0.091594 0.018200
v -0.109998 0.091594 0.017805
v -0.111529 0.091594 0.017257
v -0.112999 0.091594 0.016562
v -0.114393 0.091594 0.015727
v -0.115699 0.091594 0.014758
v -0.116904 0.091594 0.013666
v -0.117995 0.091594 0.012462
v -0.118964 0.091594 0.011156
v -0.119800 0.091594 0.009762
v -0.120495 0.091594 0.008292
v -0.121042 0.091594 0.006761
v -0.121437 0.091594 0.005184
v -0.121676 0.091594 0.003576
v -0.121756 0.091594 0.001952
v -0.121676 0.091594 0.000329
v -0.121437 0.091594 -0.001280
v -0.121042 0.091594 -0.002857
v -0.120495 0.091594 -0.004387
v -0.119800 0.091594 -0.005857
v -0.118964 0.091594 -0.007251
v -0.117995 0.091594 -0.008557
v -0.116904 0.091594 -0.009762
v -0.115699 0.091594 -0.010854
v -0.114393 0.091594 -0.011822
v -0.112999 0.091594 -0.012658
v -0.111529 0.091594 -0.013353
v -0.109998 0.091594 -0.013901
v -0.108421 0.091594 -0.014296
v -0.106813 0.091594 -0.014534
v -0.105189 0.143164 -0.013727
v -0.105189 0.141785 -0.014614
v -0.103653 0.143164 -0.013651
v -0.103566 0.141785 -0.014534
v -0.102131 0.143164 -0.013425
v -0.101958 0.141785 -0.014296
v -0.100638 0.143164 -0.013052
v -0.100381 0.141785 -0.013901
v -0.099189 0.143164 -0.012533
v -0.098850 0.141785 -0.013353
v -0.097798 0.143164 -0.011875
v -0.097380 0.141785 -0.012658
v -0.096479 0.143164 -0.011084
v -0.095986 0.141785 -0.011822
v -0.095243 0.143164 -0.010168
v -0.094680 0.141785 -0.010854
v -0.094103 0.143164 -0.009134
v -0.093475 0.141785 -0.009762
v -0.093069 0.143164 -0.007994
v -0.092384 0.141785 -0.008557
v -0.092153 0.143164 -0.006758
v -0.091415 0.141785 -0.007251
v -0.091362 0.143164 -0.005439
v -0.090579 0.141785 -0.005857
v -0.090704 0.143164 -0.004048
v -0.089884 0.141785 -0.004387
v -0.090186 0.143164 -0.002599
v -0.089337 0.141785 -0.002857
v -0.089812 0.143164 -0.001107
v -0.088942 0.141785 -0.001280
v -0.089586 0.143164 0.000416
v -0.088703 0.141785 0.000329
v -0.089510 0.143164 0.001952
v -0.088623 0.141785 0.001952
v -0.089586 0.143164 0.003489
v -0.088703 0.141785 0.003576
v -0.089812 0.143164 0.005011
v -0.088942 0.141785 0.005184
v -0.090186 0.143164 0.006504
v -0.089337 0.141785 0.006761
v -0.090704 0.143164 0.007952
v -0.089884 0.141785 0.008292
v -0.091362 0.143164 0.009343
v -0.090579 0.141785 0.009762
v -0.092153 0.143164 0.010663
v -0.091415 0.141785 0.011156
v -0.093069 0.143164 0.011899
v -0.092384 0.141785 0.012462
v -0.094103 0.143164 0.013039
v -0.093475 0.141785 0.013666
v -0.095243 0.143164 0.014072
v -0.094680 0.141785 0.014758
v -0.096479 0.143164 0.014989
v -0.095986 0.141785 0.015727
v -0.097798 0.143164 0.015780
v -0.097380 0.141785 0.016562
v -0.099189 0.143164 0.016438
v -0.098850 0.141785 0.017257
v -0.100638 0.143164 0.016956
v -0.100381 0.141785 0.017805
v -0.102131 0.143164 0.017330
v -0.101958 0.141785 0.018200
v -0.103653 0.143164 0.017556
v -0.103566 0.141785 0.018439
v -0.105189 0.143164 0.017631
v -0.105189 0.141785 0.018519
v -0.106726 0.143164 0.017556
v -0.106813 0.141785 0.018439
v -0.108248 0.143164 0.017330
v -0.108421 0.141785 0.018200
v -0.109741 0.143164 0.016956
v -0.109998 0.141785 0.017805
v -0.111190 0.143164 0.016438
v -0.111529 0.141785 0.017257
v -0.112581 0.143164 0.015780
v -0.112999 0.141785 0.016562
v -0.113900 0.143164 0.014989
v -0.114393 0.141785 0.015727
v -0.115136 0.143164 0.014072
v -0.115699 0.141785 0.014758
v -0.116276 0.143164 0.013039
v -0.116904 0.141785 0.013666
v -0.117310 0.143164 0.011899
v -0.117995 0.141785 0.012462
v -0.118226 0.143164 0.010663
v -0.118964 0.141785 0.011156
v -0.119017 0.143164 0.009343
v -0.119800 0.141785 0.009762
v -0.119675 0.143164 0.007952
v -0.120495 0.141785 0.008292
v -0.120193 0.143164 0.006504
v -0.121042 0.141785 0.006761
v -0.120567 0.143164 0.005011
v -0.121437 0.141785 0.005184
v -0.120793 0.143164 0.003489
v -0.121676 0.141785 0.003576
v -0.120868 0.143164 0.001952
v -0.121756 0.141785 0.001952
v -0.120793 0.143164 0.000416
v -0.121676 0.141785 0.000329
v -0.120567 0.143164 -0.001107
v -0.121437 0.141785 -0.001280
v -0.120193 0.143164 -0.002599
v -0.121042 0.141785 -0.002857
v -0.119675 0.143164 -0.004048
v -0.120495 0.141785 -0.004387
v -0.119017 0.143164 -0.005439
v -0.119800 0.141785 -0.005857
v -0.118226 0.143164 -0.006758
v -0.118964 0.141785 -0.007251
v -0.117310 0.143164 -0.007994
v -0.117995 0.141785 -0.008557
v -0.116276 0.143164 -0.009134
v -0.116904 0.141785 -0.009762
v -0.115136 0.143164 -0.010168
v -0.115699 0.141785 -0.010854
v -0.113900 0.143164 -0.011084
v -0.114393 0.141785 -0.011822
v -0.112581 0.143164 -0.011875
v -0.112999 0.141785 -0.012658
v -0.111190 0.143164 -0.012533
v -0.111529 0.141785 -0.013353
v -0.109741 0.143164 -0.013052
v -0.109998 0.141785 -0.013901
v -0.108248 0.143164 -0.013425
v -0.108421 0.141785 -0.014296
v -0.106726 0.143164 -0.013651
v -0.106813 0.141785 -0.014534
vn -0.0000 -1.0000 -0.0000
vn 0.0413 0.5405 -0.8403
vn 0.1234 0.5405 -0.8322
vn 0.2044 0.5405 -0.8161
vn 0.2834 0.5405 -0.7921
vn 0.3597 0.5405 -0.7605
vn 0.4325 0.5405 -0.7216
vn 0.5012 0.5405 -0.6758
vn 0.5650 0.5405 -0.6234
vn 0.6234 0.5405 -0.5650
vn 0.6758 0.5405 -0.5012
vn 0.7216 0.5405 -0.4325
vn 0.7605 0.5405 -0.3597
vn 0.7921 0.5405 -0.2834
vn 0.8161 0.5405 -0.2044
vn 0.8322 0.5405 -0.1234
vn 0.8403 0.5405 -0.0413
vn 0.8403 0.5405 0.0413
vn 0.8322 0.5405 0.1234
vn 0.8161 0.5405 0.2044
vn 0.7921 0.5405 0.2834
vn 0.7605 0.5405 0.3597
vn 0.7216 0.5405 0.4325
vn 0.6758 0.5405 0.5012
vn 0.6234 0.5405 0.5650
vn 0.5650 0.5405 0.6234
vn 0.5012 0.5405 0.6758
vn 0.4325 0.5405 0.7216
vn 0.3597 0.5405 0.7605
vn 0.2834 0.5405 0.7921
vn 0.2044 0.5405 0.8161
vn 0.1234 0.5405 0.8322
vn 0.0413 0.5405 0.8403
vn -0.0413 0.5405 0.8403
vn -0.1234 0.5405 0.8322
vn -0.2044 0.5405 0.8161
vn -0.2834 0.5405 0.7921
vn -0.3597 0.5405 0.7605
vn -0.4325 0.5405 0.7216
vn -0.5012 0.5405 0.6758
vn -0.5650 0.5405 0.6234
vn -0.6234 0.5405 0.5650
vn -0.6758 0.5405 0.5012
vn -0.7216 0.5405 0.4325
vn -0.7605 0.5405 0.3597
vn -0.7921 0.5405 0.2834
vn -0.8161 0.5405 0.2044
vn -0.8322 0.5405 0.1234
vn -0.8403 0.5405 0.0413
vn -0.8403 0.5405 -0.0413
vn -0.8322 0.5405 -0.1234
vn -0.8161 0.5405 -0.2044
vn -0.7921 0.5405 -0.2834
vn -0.7605 0.5405 -0.3597
vn -0.7216 0.5405 -0.4325
vn -0.6758 0.5405 -0.5012
vn -0.6234 0.5405 -0.5650
vn -0.5650 0.5405 -0.6234
vn -0.5012 0.5405 -0.6758
vn -0.4325 0.5405 -0.7216
vn -0.3597 0.5405 -0.7605
vn -0.2834 0.5405 -0.7921
vn -0.2044 0.5405 -0.8161
vn -0.1234 0.5405 -0.8322
vn -0.0413 0.5405 -0.8403
vn -0.0000 1.0000 -0.0000
vn 0.0491 -0.0000 -0.9988
vn -0.0491 -0.0000 -0.9988
vn 0.1467 -0.0000 -0.9892
vn 0.2430 -0.0000 -0.9700
vn 0.3369 -0.0000 -0.9415
vn 0.4276 -0.0000 -0.9040
vn 0.5141 -0.0000 -0.8577
vn 0.5957 -0.0000 -0.8032
vn 0.6716 -0.0000 -0.7410
vn 0.7410 -0.0000 -0.6716
vn 0.8032 -0.0000 -0.5957
vn 0.8577 -0.0000 -0.5141
vn 0.9040 -0.0000 -0.4276
vn 0.9415 -0.0000 -0.3369
vn 0.9700 -0.0000 -0.2430
vn 0.9892 -0.0000 -0.1467
vn 0.9988 -0.0000 -0.0491
vn 0.9988 -0.0000 0.0491
vn 0.9892 -0.0000 0.1467
vn 0.9700 -0.0000 0.2430
vn 0.9415 -0.0000 0.3369
vn 0.9040 -0.0000 0.4276
vn 0.8577 -0.0000 0.5141
vn 0.8032 -0.0000 0.5957
vn 0.7410 -0.0000 0.6716
vn 0.6716 -0.0000 0.7410
vn 0.5957 -0.0000 0.8032
vn 0.5141 -0.0000 0.8577
vn 0.4276 -0.0000 0.9040
vn 0.3369 -0.0000 0.9415
vn 0.2430 -0.0000 0.9700
vn 0.1467 -0.0000 0.9892
vn 0.0491 -0.0000 0.9988
vn -0.0491 -0.0000 0.9988
vn -0.1467 -0.0000 0.9892
vn -0.2430 -0.0000 0.9700
vn -0.3369 -0.0000 0.9415
vn -0.4276 -0.0000 0.9040
vn -0.5141 -0.0000 0.8577
vn -0.5957 -0.0000 0.8032
vn -0.6716 -0.0000 0.7410
vn -0.7410 -0.0000 0.6716
vn -0.8032 -0.0000 0.5957
vn -0.8577 -0.0000 0.5141
vn -0.9040 -0.0000 0.4276
vn -0.9415 -0.0000 0.3369
vn -0.9700 -0.0000 0.2430
vn -0.9892 -0.0000 0.1467
vn -0.9988 -0.0000 0.0491
vn -0.9988 -0.0000 -0.0491
vn -0.9892 -0.0000 -0.1467
vn -0.9700 -0.0000 -0.2430
vn -0.9415 -0.0000 -0.3369
vn -0.9040 -0.0000 -0.4276
vn -0.8577 -0.0000 -0.5141
vn -0.8032 -0.0000 -0.5957
vn -0.7410 -0.0000 -0.6716
vn -0.6716 -0.0000 -0.7410
vn -0.5957 -0.0000 -0.8032
vn -0.5141 -0.0000 -0.8577
vn -0.4276 -0.0000 -0.9040
vn -0.3369 -0.0000 -0.9415
vn -0.2430 -0.0000 -0.9700
vn -0.1467 -0.0000 -0.9892
vt 0.500000 0.519639
vt 0.501925 0.519545
vt 0.503831 0.519262
vt 0.505701 0.518793
vt 0.507516 0.518144
vt 0.509258 0.517320
vt 0.510911 0.516329
vt 0.512459 0.515181
vt 0.513887 0.513887
vt 0.515181 0.512459
vt 0.516329 0.510911
vt 0.517320 0.509258
vt 0.518144 0.507516
vt 0.518793 0.505701
vt 0.519262 0.503831
vt 0.519545 0.501925
vt 0.519639 0.500000
vt 0.519545 0.498075
vt 0.519262 0.496169
vt 0.518793 0.494299
vt 0.518144 0.492484
vt 0.517320 0.490742
vt 0.516329 0.489089
vt 0.515181 0.487541
vt 0.513887 0.486113
vt 0.512459 0.484819
vt 0.510911 0.483671
vt 0.509258 0.482680
vt 0.507516 0.481856
vt 0.505701 0.481207
vt 0.503831 0.480738
vt 0.501925 0.480455
vt 0.500000 0.480361
vt 0.498075 0.480455
vt 0.496169 0.480738
vt 0.494299 0.481207
vt 0.492484 0.481856
vt 0.490742 0.482680
vt 0.489089 0.483671
vt 0.487541 0.484819
vt 0.486113 0.486113
vt 0.484819 0.487541
vt 0.483671 0.489089
vt 0.482680 0.490742
vt 0.481856 0.492484
vt 0.481207 0.494299
vt 0.480738 0.496169
vt 0.480455 0.498075
vt 0.480361 0.500000
vt 0.480455 0.501925
vt 0.480738 0.503831
vt 0.481207 0.505701
vt 0.481856 0.507516
vt 0.482680 0.509258
vt 0.483671 0.510911
vt 0.484819 0.512459
vt 0.486113 0.513887
vt 0.487541 0.515181
vt 0.489089 0.516329
vt 0.490742 0.517320
vt 0.492484 0.518144
vt 0.494299 0.518793
vt 0.496169 0.519262
vt 0.498075 0.519545
vt 0.500000 0.518587
vt 0.501822 0.518498
vt 0.503626 0.518230
vt 0.505396 0.517787
vt 0.507113 0.517173
vt 0.508762 0.516393
vt 0.510327 0.515455
vt 0.511792 0.514368
vt 0.513143 0.513143
vt 0.514368 0.511792
vt 0.515455 0.510327
vt 0.516393 0.508762
vt 0.517173 0.507113
vt 0.517787 0.505396
vt 0.518230 0.503626
vt 0.518498 0.501822
vt 0.518587 0.500000
vt 0.518498 0.498178
vt 0.518230 0.496374
vt 0.517787 0.494604
vt 0.517173 0.492887
vt 0.516393 0.491238
vt 0.515455 0.489673
vt 0.514368 0.488208
vt 0.513143 0.486857
vt 0.511792 0.485632
vt 0.510327 0.484545
vt 0.508762 0.483607
vt 0.507113 0.482828
vt 0.505396 0.482213
vt 0.503626 0.481770
vt 0.501822 0.481502
vt 0.500000 0.481413
vt 0.498178 0.481502
vt 0.496374 0.481770
vt 0.494604 0.482213
vt 0.492887 0.482828
vt 0.491238 0.483607
vt 0.489673 0.484545
vt 0.488208 0.485632
vt 0.486857 0.486857
vt 0.485632 0.488208
vt 0.484545 0.489673
vt 0.483607 0.491238
vt 0.482828 0.492887
vt 0.482213 0.494604
vt 0.481770 0.496374
vt 0.481502 0.498178
vt 0.481413 0.500000
vt 0.481502 0.501822
vt 0.481770 0.503626
vt 0.482213 0.505396
vt 0.482828 0.507113
vt 0.483607 0.508762
vt 0.484545 0.510327
vt 0.485632 0.511792
vt 0.486857 0.513143
vt 0.488208 0.514368
vt 0.489673 0.515455
vt 0.491238 0.516393
vt 0.492887 0.517173
vt 0.494604 0.517787
vt 0.496374 0.518230
vt 0.498178 0.518498
vt 0.500000 0.471210
vt 0.500000 0.509437
vt 0.501925 0.509437
vt 0.501925 0.471210
vt 0.498075 0.471210
vt 0.498075 0.509437
vt 0.503831 0.509437
vt 0.503831 0.471210
vt 0.505701 0.509437
vt 0.505701 0.471210
vt 0.507516 0.509437
vt 0.507516 0.471210
vt 0.509258 0.509437
vt 0.509258 0.471210
vt 0.510911 0.509437
vt 0.510911 0.471210
vt 0.512459 0.509437
vt 0.512459 0.471210
vt 0.513887 0.509437
vt 0.513887 0.471210
vt 0.496169 0.509437
vt 0.496169 0.471210
vt 0.494299 0.509437
vt 0.494299 0.471210
vt 0.492484 0.509437
vt 0.492484 0.471210
vt 0.490742 0.509437
vt 0.490742 0.471210
vt 0.489089 0.509437
vt 0.489089 0.471210
vt 0.487541 0.509437
vt 0.487541 0.471210
vt 0.486113 0.509437
vt 0.486113 0.471210
s 0
g Cylinder_Procedural_pearl_red_painted_plastic
usemtl Procedural_pearl_red_painted_plastic
f 1/1/1 2/2/1 3/3/1 4/4/1 5/5/1 6/6/1 7/7/1 8/8/1 9/9/1 10/10/1 11/11/1 12/12/1 13/13/1 14/14/1 15/15/1 16/16/1 17/17/1 18/18/1 19/19/1 20/20/1 21/21/1 22/22/1 23/23/1 24/24/1 25/25/1 26/26/1 27/27/1 28/28/1 29/29/1 30/30/1 31/31/1 32/32/1 33/33/1 34/34/1 35/35/1 36/36/1 37/37/1 38/38/1 39/39/1 40/40/1 41/41/1 42/42/1 43/43/1 44/44/1 45/45/1 46/46/1 47/47/1 48/48/1 49/49/1 50/50/1 51/51/1 52/52/1 53/53/1 54/54/1 55/55/1 56/56/1 57/57/1 58/58/1 59/59/1 60/60/1 61/61/1 62/62/1 63/63/1 64/64/1
f 68/2/2 66/1/2 65/65/2 67/66/2
f 70/3/3 68/2/3 67/66/3 69/67/3
f 72/4/4 70/3/4 69/67/4 71/68/4
f 74/5/5 72/4/5 71/68/5 73/69/5
f 76/6/6 74/5/6 73/69/6 75/70/6
f 78/7/7 76/6/7 75/70/7 77/71/7
f 80/8/8 78/7/8 77/71/8 79/72/8
f 82/9/9 80/8/9 79/72/9 81/73/9
f 84/10/10 82/9/10 81/73/10 83/74/10
f 86/11/11 84/10/11 83/74/11 85/75/11
f 88/12/12 86/11/12 85/75/12 87/76/12
f 90/13/13 88/12/13 87/76/13 89/77/13
f 92/14/14 90/13/14 89/77/14 91/78/14
f 94/15/15 92/14/15 91/78/15 93/79/15
f 96/16/16 94/15/16 93/79/16 95/80/16
f 98/17/17 96/16/17 95/80/17 97/81/17
f 100/18/18 98/17/18 97/81/18 99/82/18
f 102/19/19 100/18/19 99/82/19 101/83/19
f 104/20/20 102/19/20 101/83/20 103/84/20
f 106/21/21 104/20/21 103/84/21 105/85/21
f 108/22/22 106/21/22 105/85/22 107/86/22
f 110/23/23 108/22/23 107/86/23 109/87/23
f 112/24/24 110/23/24 109/87/24 111/88/24
f 114/25/25 112/24/25 111/88/25 113/89/25
f 116/26/26 114/25/26 113/89/26 115/90/26
f 118/27/27 116/26/27 115/90/27 117/91/27
f 120/28/28 118/27/28 117/91/28 119/92/28
f 122/29/29 120/28/29 119/92/29 121/93/29
f 124/30/30 122/29/30 121/93/30 123/94/30
f 126/31/31 124/30/31 123/94/31 125/95/31
f 128/32/32 126/31/32 125/95/32 127/96/32
f 130/33/33 128/32/33 127/96/33 129/97/33
f 132/34/34 130/33/34 129/97/34 131/98/34
f 134/35/35 132/34/35 131/98/35 133/99/35
f 136/36/36 134/35/36 133/99/36 135/100/36
f 138/37/37 136/36/37 135/100/37 137/101/37
f 140/38/38 138/37/38 137/101/38 139/102/38
f 142/39/39 140/38/39 139/102/39 141/103/39
f 144/40/40 142/39/40 141/103/40 143/104/40
f 146/41/41 144/40/41 143/104/41 145/105/41
f 148/42/42 146/41/42 145/105/42 147/106/42
f 150/43/43 148/42/43 147/106/43 149/107/43
f 152/44/44 150/43/44 149/107/44 151/108/44
f 154/45/45 152/44/45 151/108/45 153/109/45
f 156/46/46 154/45/46 153/109/46 155/110/46
f 158/47/47 156/46/47 155/110/47 157/111/47
f 160/48/48 158/47/48 157/111/48 159/112/48
f 162/49/49 160/48/49 159/112/49 161/113/49
f 164/50/50 162/49/50 161/113/50 163/114/50
f 166/51/51 164/50/51 163/114/51 165/115/51
f 168/52/52 166/51/52 165/115/52 167/116/52
f 170/53/53 168/52/53 167/116/53 169/117/53
f 172/54/54 170/53/54 169/117/54 171/118/54
f 174/55/55 172/54/55 171/118/55 173/119/55
f 176/56/56 174/55/56 173/119/56 175/120/56
f 178/57/57 176/56/57 175/120/57 177/121/57
f 180/58/58 178/57/58 177/121/58 179/122/58
f 182/59/59 180/58/59 179/122/59 181/123/59
f 184/60/60 182/59/60 181/123/60 183/124/60
f 186/61/61 184/60/61 183/124/61 185/125/61
f 188/62/62 186/61/62 185/125/62 187/126/62
f 190/63/63 188/62/63 187/126/63 189/127/63
f 192/64/64 190/63/64 189/127/64 191/128/64
f 66/1/65 192/64/65 191/128/65 65/65/65
f 67/66/66 65/65/66 191/128/66 189/127/66 187/126/66 185/125/66 183/124/66 181/123/66 179/122/66 177/121/66 175/120/66 173/119/66 171/118/66 169/117/66 167/116/66 165/115/66 163/114/66 161/113/66 159/112/66 157/111/66 155/110/66 153/109/66 151/108/66 149/107/66 147/106/66 145/105/66 143/104/66 141/103/66 139/102/66 137/101/66 135/100/66 133/99/66 131/98/66 129/97/66 127/96/66 125/95/66 123/94/66 121/93/66 119/92/66 117/91/66 115/90/66 113/89/66 111/88/66 109/87/66 107/86/66 105/85/66 103/84/66 101/83/66 99/82/66 97/81/66 95/80/66 93/79/66 91/78/66 89/77/66 87/76/66 85/75/66 83/74/66 81/73/66 79/72/66 77/71/66 75/70/66 73/69/66 71/68/66 69/67/66
f 1/129/67 66/130/67 68/131/67 2/132/67
f 64/133/68 192/134/68 66/130/68 1/129/68
f 2/132/69 68/131/69 70/135/69 3/136/69
f 3/136/70 70/135/70 72/137/70 4/138/70
f 4/138/71 72/137/71 74/139/71 5/140/71
f 5/140/72 74/139/72 76/141/72 6/142/72
f 6/142/73 76/141/73 78/143/73 7/144/73
f 7/144/74 78/143/74 80/145/74 8/146/74
f 8/146/75 80/145/75 82/147/75 9/148/75
f 9/148/76 82/147/76 84/145/76 10/146/76
f 10/146/77 84/145/77 86/143/77 11/144/77
f 11/144/78 86/143/78 88/141/78 12/142/78
f 12/142/79 88/141/79 90/139/79 13/140/79
f 13/140/80 90/139/80 92/137/80 14/138/80
f 14/138/81 92/137/81 94/135/81 15/136/81
f 15/136/82 94/135/82 96/131/82 16/132/82
f 16/132/83 96/131/83 98/130/83 17/129/83
f 17/129/84 98/130/84 100/134/84 18/133/84
f 18/133/85 100/134/85 102/149/85 19/150/85
f 19/150/86 102/149/86 104/151/86 20/152/86
f 20/152/87 104/151/87 106/153/87 21/154/87
f 21/154/88 106/153/88 108/155/88 22/156/88
f 22/156/89 108/155/89 110/157/89 23/158/89
f 23/158/90 110/157/90 112/159/90 24/160/90
f 24/160/91 112/159/91 114/161/91 25/162/91
f 25/148/92 114/147/92 116/145/92 26/146/92
f 26/146/93 116/145/93 118/143/93 27/144/93
f 27/144/94 118/143/94 120/141/94 28/142/94
f 28/142/95 120/141/95 122/139/95 29/140/95
f 29/140/96 122/139/96 124/137/96 30/138/96
f 30/138/97 124/137/97 126/135/97 31/136/97
f 31/136/98 126/135/98 128/131/98 32/132/98
f 32/132/99 128/131/99 130/130/99 33/129/99
f 33/129/100 130/130/100 132/134/100 34/133/100
f 34/133/101 132/134/101 134/149/101 35/150/101
f 35/150/102 134/149/102 136/151/102 36/152/102
f 36/152/103 136/151/103 138/153/103 37/154/103
f 37/154/104 138/153/104 140/155/104 38/156/104
f 38/156/105 140/155/105 142/157/105 39/158/105
f 39/158/106 142/157/106 144/159/106 40/160/106
f 40/160/107 144/159/107 146/161/107 41/162/107
f 41/162/108 146/161/108 148/159/108 42/160/108
f 42/160/109 148/159/109 150/157/109 43/158/109
f 43/158/110 150/157/110 152/155/110 44/156/110
f 44/156/111 152/155/111 154/153/111 45/154/111
f 45/154/112 154/153/112 156/151/112 46/152/112
f 46/152/113 156/151/113 158/149/113 47/150/113
f 47/150/114 158/149/114 160/134/114 48/133/114
f 48/133/115 160/134/115 162/130/115 49/129/115
f 49/129/116 162/130/116 164/131/116 50/132/116
f 50/132/117 164/131/117 166/135/117 51/136/117
f 51/136/118 166/135/118 168/137/118 52/138/118
f 52/138/119 168/137/119 170/139/119 53/140/119
f 53/140/120 170/139/120 172/141/120 54/142/120
f 54/142/121 172/141/121 174/143/121 55/144/121
f 55/144/122 174/143/122 176/145/122 56/146/122
f 56/146/123 176/145/123 178/147/123 57/148/123
f 57/162/124 178/161/124 180/159/124 58/160/124
f 58/160/125 180/159/125 182/157/125 59/158/125
f 59/158/126 182/157/126 184/155/126 60/156/126
f 60/156/127 184/155/127 186/153/127 61/154/127
f 61/154/128 186/153/128 188/151/128 62/152/128
f 62/152/129 188/151/129 190/149/129 63/150/129
f 63/150/130 190/149/130 192/134/130 64/133/130
